<svg width="18" height="18" viewBox="0 0 18 18" fill="none" xmlns="http://www.w3.org/2000/svg">
<g clip-path="url(#clip0_101_974)">
<path d="M8.99994 17.7352C13.8243 17.7352 17.7352 13.8243 17.7352 8.99994C17.7352 4.17557 13.8243 0.264648 8.99994 0.264648C4.17557 0.264648 0.264648 4.17557 0.264648 8.99994C0.264648 13.8243 4.17557 17.7352 8.99994 17.7352Z" stroke="#7732E4" stroke-linecap="round" stroke-linejoin="round"/>
<path d="M0.264765 9.00003C0.264765 11.1442 4.17569 12.8824 9.00006 12.8824C13.8244 12.8824 17.7354 11.1442 17.7354 9.00003C17.7354 6.85586 13.8244 5.11768 9.00006 5.11768C4.17569 5.11768 0.264765 6.85586 0.264765 9.00003Z" stroke="#7732E4" stroke-linecap="round" stroke-linejoin="round"/>
<circle cx="9" cy="9" r="3.5" fill="white" stroke="#7732E4"/>
<circle cx="9.5" cy="7.5" r="1.4" fill="#7732E4" stroke="#7732E4" stroke-width="0.2"/>
</g>
<defs>
<clipPath id="clip0_101_974">
<rect width="18" height="18" fill="white"/>
</clipPath>
</defs>
</svg>
