<svg width="346" height="150" viewBox="0 0 346 150" fill="none" xmlns="http://www.w3.org/2000/svg">
<path d="M39.8217 67.1981C39.2359 67.7839 39.2359 68.7337 39.8217 69.3194L49.3676 78.8654C49.9534 79.4512 50.9031 79.4512 51.4889 78.8654C52.0747 78.2796 52.0747 77.3299 51.4889 76.7441L43.0036 68.2588L51.4889 59.7735C52.0747 59.1877 52.0747 58.238 51.4889 57.6522C50.9031 57.0664 49.9534 57.0664 49.3676 57.6522L39.8217 67.1981ZM321.943 69.3194C322.529 68.7337 322.529 67.7839 321.943 67.1981L312.397 57.6522C311.811 57.0664 310.862 57.0664 310.276 57.6522C309.69 58.238 309.69 59.1877 310.276 59.7735L318.761 68.2588L310.276 76.7441C309.69 77.3299 309.69 78.2796 310.276 78.8654C310.862 79.4512 311.811 79.4512 312.397 78.8654L321.943 69.3194ZM40.8823 69.7588H43.9258V66.7588H40.8823V69.7588ZM50.0128 69.7588H56.0997V66.7588H50.0128V69.7588ZM62.1867 69.7588H68.2736V66.7588H62.1867V69.7588ZM74.3606 69.7588H80.4475V66.7588H74.3606V69.7588ZM86.5345 69.7588H92.6215V66.7588H86.5345V69.7588ZM98.7084 69.7588H104.795V66.7588H98.7084V69.7588ZM110.882 69.7588H116.969V66.7588H110.882V69.7588ZM123.056 69.7588H129.143V66.7588H123.056V69.7588ZM135.23 69.7588H141.317V66.7588H135.23V69.7588ZM147.404 69.7588H153.491V66.7588H147.404V69.7588ZM159.578 69.7588H165.665V66.7588H159.578V69.7588ZM171.752 69.7588H177.839V66.7588H171.752V69.7588ZM183.926 69.7588H190.013V66.7588H183.926V69.7588ZM196.1 69.7588H202.187V66.7588H196.1V69.7588ZM208.274 69.7588H214.361V66.7588H208.274V69.7588ZM220.448 69.7588H226.535V66.7588H220.448V69.7588ZM232.622 69.7588H238.708V66.7588H232.622V69.7588ZM244.795 69.7588H250.882V66.7588H244.795V69.7588ZM256.969 69.7588H263.056V66.7588H256.969V69.7588ZM269.143 69.7588H275.23V66.7588H269.143V69.7588ZM281.317 69.7588H287.404V66.7588H281.317V69.7588ZM293.491 69.7588H299.578V66.7588H293.491V69.7588ZM305.665 69.7588H311.752V66.7588H305.665V69.7588ZM317.839 69.7588H320.882V66.7588H317.839V69.7588ZM38.761 66.1375C37.5894 67.309 37.5894 69.2085 38.761 70.3801L57.8529 89.472C59.0245 90.6436 60.924 90.6436 62.0955 89.472C63.2671 88.3004 63.2671 86.4009 62.0955 85.2294L45.125 68.2588L62.0955 51.2882C63.2671 50.1167 63.2671 48.2172 62.0955 47.0456C60.924 45.874 59.0245 45.874 57.8529 47.0456L38.761 66.1375ZM323.004 70.3801C324.175 69.2085 324.175 67.309 323.004 66.1375L303.912 47.0456C302.74 45.874 300.841 45.874 299.669 47.0456C298.498 48.2172 298.498 50.1167 299.669 51.2882L316.64 68.2588L299.669 85.2294C298.498 86.4009 298.498 88.3004 299.669 89.472C300.841 90.6436 302.74 90.6436 303.912 89.472L323.004 70.3801ZM40.8823 71.2588H43.9258V65.2588H40.8823V71.2588ZM50.0128 71.2588H56.0997V65.2588H50.0128V71.2588ZM62.1867 71.2588H68.2736V65.2588H62.1867V71.2588ZM74.3606 71.2588H80.4475V65.2588H74.3606V71.2588ZM86.5345 71.2588H92.6215V65.2588H86.5345V71.2588ZM98.7084 71.2588H104.795V65.2588H98.7084V71.2588ZM110.882 71.2588H116.969V65.2588H110.882V71.2588ZM123.056 71.2588H129.143V65.2588H123.056V71.2588ZM135.23 71.2588H141.317V65.2588H135.23V71.2588ZM147.404 71.2588H153.491V65.2588H147.404V71.2588ZM159.578 71.2588H165.665V65.2588H159.578V71.2588ZM171.752 71.2588H177.839V65.2588H171.752V71.2588ZM183.926 71.2588H190.013V65.2588H183.926V71.2588ZM196.1 71.2588H202.187V65.2588H196.1V71.2588ZM208.274 71.2588H214.361V65.2588H208.274V71.2588ZM220.448 71.2588H226.535V65.2588H220.448V71.2588ZM232.622 71.2588H238.708V65.2588H232.622V71.2588ZM244.795 71.2588H250.882V65.2588H244.795V71.2588ZM256.969 71.2588H263.056V65.2588H256.969V71.2588ZM269.143 71.2588H275.23V65.2588H269.143V71.2588ZM281.317 71.2588H287.404V65.2588H281.317V71.2588ZM293.491 71.2588H299.578V65.2588H293.491V71.2588ZM305.665 71.2588H311.752V65.2588H305.665V71.2588ZM317.839 71.2588H320.882V65.2588H317.839V71.2588Z" fill="#7732E4"/>
</svg>
