<svg width="262" height="114" viewBox="0 0 262 114" fill="none" xmlns="http://www.w3.org/2000/svg">
<path d="M30.9471 50.6795C30.5058 51.1208 30.5058 51.8363 30.9471 52.2776L38.1385 59.469C38.5798 59.9103 39.2953 59.9103 39.7366 59.469C40.1779 59.0277 40.1779 58.3122 39.7366 57.8709L33.3443 51.4785L39.7366 45.0861C40.1779 44.6448 40.1779 43.9294 39.7366 43.4881C39.2953 43.0468 38.5798 43.0468 38.1385 43.4881L30.9471 50.6795ZM243.483 52.2776C243.924 51.8363 243.924 51.1208 243.483 50.6795L236.291 43.4881C235.85 43.0468 235.135 43.0468 234.693 43.4881C234.252 43.9294 234.252 44.6448 234.693 45.0861L241.086 51.4785L234.693 57.8709C234.252 58.3122 234.252 59.0277 234.693 59.469C235.135 59.9103 235.85 59.9103 236.291 59.469L243.483 52.2776ZM31.7462 52.6085H34.039V50.3485H31.7462V52.6085ZM38.6246 52.6085H43.2102V50.3485H38.6246V52.6085ZM47.7958 52.6085H52.3814V50.3485H47.7958V52.6085ZM56.967 52.6085H61.5526V50.3485H56.967V52.6085ZM66.1382 52.6085H70.7238V50.3485H66.1382V52.6085ZM75.3093 52.6085H79.8949V50.3485H75.3093V52.6085ZM84.4805 52.6085H89.0661V50.3485H84.4805V52.6085ZM93.6517 52.6085H98.2373V50.3485H93.6517V52.6085ZM102.823 52.6085H107.409V50.3485H102.823V52.6085ZM111.994 52.6085H116.58V50.3485H111.994V52.6085ZM121.165 52.6085H125.751V50.3485H121.165V52.6085ZM130.337 52.6085H134.922V50.3485H130.337V52.6085ZM139.508 52.6085H144.093V50.3485H139.508V52.6085ZM148.679 52.6085H153.265V50.3485H148.679V52.6085ZM157.85 52.6085H162.436V50.3485H157.85V52.6085ZM167.021 52.6085H171.607V50.3485H167.021V52.6085ZM176.193 52.6085H180.778V50.3485H176.193V52.6085ZM185.364 52.6085H189.949V50.3485H185.364V52.6085ZM194.535 52.6085H199.121V50.3485H194.535V52.6085ZM203.706 52.6085H208.292V50.3485H203.706V52.6085ZM212.877 52.6085H217.463V50.3485H212.877V52.6085ZM222.049 52.6085H226.634V50.3485H222.049V52.6085ZM231.22 52.6085H235.805V50.3485H231.22V52.6085ZM240.391 52.6085H242.684V50.3485H240.391V52.6085ZM30.1481 49.8804C29.2655 50.763 29.2655 52.194 30.1481 53.0766L44.5309 67.4594C45.4135 68.342 46.8445 68.342 47.7271 67.4594C48.6097 66.5768 48.6097 65.1459 47.7271 64.2633L34.9424 51.4785L47.7271 38.6938C48.6097 37.8112 48.6097 36.3802 47.7271 35.4976C46.8445 34.615 45.4135 34.615 44.5309 35.4976L30.1481 49.8804ZM244.282 53.0766C245.164 52.194 245.164 50.763 244.282 49.8804L229.899 35.4976C229.016 34.615 227.585 34.615 226.703 35.4976C225.82 36.3802 225.82 37.8112 226.703 38.6938L239.487 51.4785L226.703 64.2633C225.82 65.1459 225.82 66.5768 226.703 67.4594C227.585 68.342 229.016 68.342 229.899 67.4594L244.282 53.0766ZM31.7462 53.7386H34.039V49.2185H31.7462V53.7386ZM38.6246 53.7386H43.2102V49.2185H38.6246V53.7386ZM47.7958 53.7386H52.3814V49.2185H47.7958V53.7386ZM56.967 53.7386H61.5526V49.2185H56.967V53.7386ZM66.1382 53.7386H70.7238V49.2185H66.1382V53.7386ZM75.3093 53.7386H79.8949V49.2185H75.3093V53.7386ZM84.4805 53.7386H89.0661V49.2185H84.4805V53.7386ZM93.6517 53.7386H98.2373V49.2185H93.6517V53.7386ZM102.823 53.7386H107.409V49.2185H102.823V53.7386ZM111.994 53.7386H116.58V49.2185H111.994V53.7386ZM121.165 53.7386H125.751V49.2185H121.165V53.7386ZM130.337 53.7386H134.922V49.2185H130.337V53.7386ZM139.508 53.7386H144.093V49.2185H139.508V53.7386ZM148.679 53.7386H153.265V49.2185H148.679V53.7386ZM157.85 53.7386H162.436V49.2185H157.85V53.7386ZM167.021 53.7386H171.607V49.2185H167.021V53.7386ZM176.193 53.7386H180.778V49.2185H176.193V53.7386ZM185.364 53.7386H189.949V49.2185H185.364V53.7386ZM194.535 53.7386H199.121V49.2185H194.535V53.7386ZM203.706 53.7386H208.292V49.2185H203.706V53.7386ZM212.877 53.7386H217.463V49.2185H212.877V53.7386ZM222.049 53.7386H226.634V49.2185H222.049V53.7386ZM231.22 53.7386H235.805V49.2185H231.22V53.7386ZM240.391 53.7386H242.684V49.2185H240.391V53.7386Z" fill="#7732E4"/>
</svg>
