<svg width="125" height="125" viewBox="0 0 125 125" fill="none" xmlns="http://www.w3.org/2000/svg">
<g opacity="0.6">
<g opacity="0.5">
<path d="M51.9388 23.2944C51.9388 16.427 57.5055 10.856 64.3773 10.856C71.249 10.856 76.8157 16.4227 76.8157 23.2944C76.8157 30.1661 71.249 35.7328 64.3773 35.7328C57.5055 35.7328 51.9388 30.1618 51.9388 23.2944ZM68.1361 67.7242C70.8067 64.8715 74.5482 63.0636 79.2999 62.3265C80.3794 62.1618 81.524 62.0621 82.7076 61.9927C83.0891 61.9797 83.4489 61.9407 83.8305 61.9407H91.2311C85.7988 59.6819 81.9489 54.3059 81.9489 48.0542C81.9489 45.5613 82.5688 43.1985 83.657 41.1348C79.7985 39.7258 76.2391 39.7475 76.2391 39.7475H51.2972C48.5095 39.8125 46.1683 40.1637 44.2044 40.7446C45.4226 42.9124 46.1206 45.4096 46.1206 48.0542C46.1206 54.3059 42.2751 59.6776 36.8341 61.9407H42.9557C43.0294 61.932 43.0988 61.932 43.1769 61.932C43.6104 61.932 44.083 61.9494 44.5599 61.984C45.5787 62.0577 46.6929 62.2138 47.8461 62.4479C54.1065 63.7616 61.6589 67.8803 62.4957 77.7391L62.5043 77.9602V85.6513H64.0738L64.0824 77.9602C64.0738 77.8518 63.857 72.2938 68.1361 67.7242ZM30.3179 60.6227C37.1766 60.6227 42.7563 55.043 42.7563 48.1756C42.7563 41.3082 37.1766 35.7372 30.3179 35.7372C23.4505 35.7372 17.8794 41.3082 17.8794 48.1756C17.8794 55.0386 23.4548 60.6227 30.3179 60.6227ZM42.1754 64.633H17.2378C-0.615636 64.9625 0.00433546 78.0859 0.00433546 78.0859L0 108.677H0.0173418C0.0173418 108.751 0.00433546 108.829 0.00433546 108.894C0.00433546 111.798 2.36716 114.144 5.26325 114.144C8.16367 114.144 10.5048 111.798 10.5048 108.894C10.5048 108.824 10.4961 108.751 10.4831 108.677H10.5048V80.3577H13.7911L13.7651 110.524L45.2665 110.55L45.2405 80.219H48.6482V108.673H48.6655C48.6655 108.686 48.6655 108.699 48.6655 108.716C48.6655 111.616 51.011 113.966 53.8984 113.966C56.7989 113.966 59.1487 111.616 59.1487 108.716C59.1487 108.699 59.1487 108.686 59.1487 108.673V78.0816C57.9998 64.4292 42.1754 64.633 42.1754 64.633ZM96.1822 60.6184C103.054 60.6184 108.625 55.0473 108.625 48.1756C108.625 41.3039 103.054 35.7328 96.1822 35.7328C89.3105 35.7328 83.7394 41.3039 83.7394 48.1756C83.7438 55.0473 89.3105 60.6184 96.1822 60.6184ZM108.044 64.633H83.0978C65.24 64.9625 65.873 78.0859 65.873 78.0859L65.8643 108.677H65.886C65.886 108.751 65.873 108.829 65.873 108.894C65.873 111.798 68.2315 114.144 71.1276 114.144C74.028 114.144 76.3648 111.798 76.3648 108.894C76.3648 108.824 76.3518 108.751 76.3475 108.677H76.3648V80.3577H79.6598L79.6207 110.524L111.122 110.55L111.096 80.219H114.504V108.673H114.513C114.513 108.686 114.513 108.699 114.513 108.716C114.513 111.616 116.862 113.966 119.758 113.966C122.65 113.966 125 111.616 125 108.716C125 108.699 125 108.686 125 108.673V78.0816C123.864 64.4292 108.044 64.633 108.044 64.633Z" fill="#7732E4"/>
</g>
</g>
</svg>
